<svg width="207" height="159" viewBox="0 0 207 159" fill="none" xmlns="http://www.w3.org/2000/svg">
<path d="M137.605 158.202H127.581L130.525 75.8593H134.66L137.605 158.202Z" fill="#DAD9D8"/>
<path d="M134.908 82.7827L134.825 80.4644L134.908 82.7827Z" fill="#DAD9D8"/>
<path d="M134.908 82.7827L134.825 80.4644L134.908 82.7827Z" fill="#B5B5B4"/>
<path d="M135.662 74.5176C135.662 76.2136 134.287 77.5869 132.593 77.5869C130.898 77.5869 129.524 76.2136 129.524 74.5176C129.524 72.8236 130.898 71.4482 132.593 71.4482C134.287 71.4482 135.662 72.8236 135.662 74.5176Z" fill="#838585"/>
<path d="M134.344 34.3925C134.255 33.38 133.656 32.475 132.744 32.0278L132.7 32.013L132.668 31.9666C131.779 34.1289 128.675 65.683 128.309 69.4253C128.287 69.6573 128.368 69.883 128.531 70.0476L130.895 72.4482C131.042 72.598 131.243 72.6824 131.453 72.6824H133.723C133.933 72.6824 134.134 72.598 134.281 72.4482L136.654 70.0391C136.812 69.8788 136.894 69.6637 136.877 69.4379C136.627 65.9066 134.549 36.7257 134.344 34.3925" fill="#ECEEE7"/>
<path d="M97.0379 93.1953C96.2056 93.7796 95.722 94.75 95.792 95.7647L95.7996 95.809L95.7772 95.8596C98.0934 95.5495 126.969 82.46 130.391 80.9053C130.603 80.8103 130.759 80.6268 130.821 80.4032L131.716 77.1545C131.772 76.952 131.744 76.7369 131.639 76.5554L130.504 74.5872C130.4 74.4058 130.226 74.275 130.024 74.2223L126.751 73.3701C126.533 73.3152 126.305 73.3511 126.119 73.4777C123.187 75.4606 98.9559 91.8494 97.0379 93.1953" fill="#ECEEE7"/>
<path d="M167.306 95.1381C168.242 95.5368 169.322 95.4355 170.146 94.8406L170.181 94.809L170.235 94.8027C168.749 92.999 142.39 75.3825 139.263 73.294C139.07 73.1654 138.831 73.1316 138.609 73.197L135.378 74.1505C135.177 74.2096 135.008 74.3467 134.909 74.5323L133.838 76.5343C133.74 76.7199 133.72 76.9351 133.782 77.1355L134.787 80.3651C134.854 80.5803 135.006 80.7533 135.211 80.8461C138.442 82.289 165.153 94.2183 167.306 95.1381" fill="#ECEEE7"/>
<path d="M127.581 158.202L130.234 83.9894L127.581 158.202ZM123.406 84.0611C124.692 83.4831 125.866 82.9536 126.878 82.4958C125.866 82.9536 124.693 83.481 123.406 84.0611ZM135.63 74.0768L138.609 73.1971C138.683 73.176 138.757 73.1633 138.832 73.1633C138.97 73.1633 139.106 73.2013 139.226 73.2709C139.106 73.2013 138.97 73.1654 138.832 73.1654C138.758 73.1654 138.683 73.176 138.609 73.1971L135.63 74.0768ZM130.619 72.1676L130.497 72.0453L130.619 72.1676ZM136.877 69.4379C136.637 66.0627 134.729 39.2402 134.382 34.8503C134.729 39.2402 136.637 66.0627 136.877 69.4379ZM128.33 69.2164C128.777 64.643 131.793 34.093 132.668 31.9666C131.793 34.093 128.777 64.643 128.33 69.2164Z" fill="#ECEEE7"/>
<path d="M137.605 158.202H127.581L130.234 83.9894L130.113 87.3815L133.103 85.2614C133.896 85.6137 134.549 85.9006 135.027 86.1115L137.605 158.202Z" fill="#C6C6BF"/>
<path d="M130.113 87.3816L130.234 83.9895C131.317 84.4705 132.285 84.8987 133.103 85.2615L130.113 87.3816M134.908 82.7829C133.749 81.9496 132.406 80.9982 130.939 79.9709L131.639 77.4373C131.938 77.5344 132.259 77.5871 132.593 77.5871C133.037 77.5871 133.459 77.4943 133.84 77.3234L134.787 80.3653C134.797 80.3991 134.81 80.4329 134.825 80.4645L134.908 82.7829" fill="#A5A7A0"/>
<path d="M132.593 77.5869C132.259 77.5869 131.938 77.5342 131.639 77.4371L131.716 77.1545C131.772 76.9519 131.744 76.7368 131.639 76.5554L130.504 74.5872C130.399 74.4057 130.226 74.275 130.024 74.2222L129.565 74.102C129.67 73.3299 130.059 72.6549 130.629 72.1781L130.619 72.1676L130.895 72.4481C131.042 72.5979 131.243 72.6823 131.453 72.6823H133.723C133.933 72.6823 134.134 72.5979 134.281 72.4481L134.552 72.1739C135.118 72.6464 135.507 73.3151 135.617 74.0788L135.63 74.0767L135.378 74.1505C135.177 74.2096 135.008 74.3467 134.909 74.5323L133.838 76.5343C133.74 76.7199 133.72 76.9351 133.782 77.1355L133.84 77.3232C133.459 77.4941 133.037 77.5869 132.593 77.5869" fill="#777978"/>
<path d="M133.723 72.6824H131.453C131.243 72.6824 131.042 72.598 130.895 72.4482L130.619 72.1676L130.497 72.0453L128.531 70.0476C128.396 69.9105 128.317 69.7333 128.307 69.5434C128.306 69.5308 128.306 69.516 128.306 69.5012C128.306 69.4759 128.307 69.4506 128.309 69.4253C128.316 69.3641 128.322 69.2945 128.33 69.2164C128.777 64.643 131.793 34.093 132.668 31.9666L132.7 32.013L132.743 32.0278C133.656 32.475 134.255 33.38 134.344 34.3925C134.353 34.4938 134.366 34.6499 134.382 34.8503C134.729 39.2402 136.637 66.0627 136.877 69.4379C136.879 69.4569 136.88 69.4738 136.88 69.4907C136.88 69.6953 136.8 69.8915 136.654 70.0391L134.552 72.174L134.281 72.4482C134.133 72.598 133.933 72.6824 133.723 72.6824" fill="#D8DBCC"/>
<path d="M166.913 92.1956C159.615 86.907 142.8 75.6569 139.52 73.4673C142.8 75.6569 159.615 86.907 166.913 92.1956ZM99.6002 91.4424C103.807 88.5798 112.123 82.9474 118.384 78.7115C118.385 78.7115 118.383 78.7115 118.384 78.7115C112.124 82.9474 103.807 88.5798 99.6002 91.4424ZM123.127 84.1857C123.132 84.1836 123.137 84.1815 123.143 84.1794C123.138 84.1815 123.132 84.1836 123.127 84.1857ZM123.201 84.152C123.207 84.1499 123.211 84.1477 123.217 84.1456C123.211 84.1477 123.207 84.1499 123.201 84.152ZM123.273 84.1203C123.289 84.114 123.306 84.1056 123.323 84.0992C123.306 84.1056 123.289 84.114 123.273 84.1203ZM123.331 84.095C123.355 84.0845 123.379 84.0739 123.403 84.0612C123.379 84.0718 123.355 84.0845 123.331 84.095ZM123.805 75.0431C124.897 74.3047 125.703 73.7584 126.11 73.4841C125.703 73.7584 124.897 74.3047 123.805 75.0431ZM139.239 73.2795C139.238 73.2795 139.236 73.2774 139.234 73.2774C139.236 73.2774 139.238 73.2795 139.239 73.2795ZM139.233 73.2753C139.232 73.2753 139.231 73.2753 139.23 73.2753C139.231 73.2753 139.232 73.2753 139.233 73.2753Z" fill="#ECEEE7"/>
<path d="M99.7065 94.4294L99.6002 91.4424C103.807 88.5797 112.124 82.9473 118.384 78.7114C121.349 80.0341 124.284 81.342 126.878 82.4959C125.866 82.9537 124.692 83.4832 123.406 84.0612C123.405 84.0612 123.404 84.0612 123.403 84.0612C123.379 84.0738 123.355 84.0844 123.331 84.0949C123.328 84.0949 123.325 84.097 123.323 84.0991C123.306 84.1055 123.289 84.1139 123.273 84.1202C123.254 84.1287 123.236 84.1371 123.217 84.1456C123.211 84.1477 123.207 84.1498 123.201 84.1519C123.182 84.1624 123.163 84.1709 123.143 84.1793C123.137 84.1814 123.132 84.1835 123.127 84.1856C115.943 87.4153 105.429 92.0942 99.7065 94.4294ZM130.939 79.9708C128.763 78.4498 126.318 76.7622 123.805 75.043C124.897 74.3047 125.703 73.7583 126.11 73.484C126.113 73.4819 126.116 73.4798 126.119 73.4777C126.248 73.3912 126.399 73.3448 126.552 73.3448C126.618 73.3448 126.685 73.3533 126.751 73.3702L129.565 74.1021L130.024 74.2224C130.226 74.2751 130.399 74.4059 130.504 74.5873L131.639 76.5555C131.744 76.7369 131.772 76.9521 131.716 77.1546L131.639 77.4373L130.939 79.9708" fill="#D8DBCC"/>
<path d="M168.471 95.3767C168.077 95.3767 167.68 95.2987 167.306 95.1383C165.153 94.2186 138.442 82.2893 135.211 80.8464L134.824 80.4308L134.825 80.4646C134.81 80.4329 134.797 80.3991 134.787 80.3654L133.84 77.3235L133.782 77.1357C133.72 76.9353 133.74 76.7202 133.838 76.5345L134.909 74.5326C135.008 74.347 135.177 74.2098 135.378 74.1508L135.63 74.0769L138.609 73.1973C138.683 73.1762 138.758 73.1656 138.832 73.1656C138.97 73.1656 139.106 73.2015 139.226 73.2711C139.228 73.2732 139.229 73.2732 139.23 73.2753C139.231 73.2753 139.232 73.2753 139.233 73.2753C139.233 73.2753 139.233 73.2774 139.234 73.2774C139.236 73.2774 139.238 73.2795 139.239 73.2795C139.248 73.2837 139.255 73.2901 139.263 73.2943C139.337 73.3449 139.422 73.4019 139.52 73.4673C142.8 75.657 159.615 86.907 166.913 92.1956C168.722 93.5077 169.947 94.4527 170.235 94.8029L170.181 94.8093L170.146 94.8409C169.65 95.1974 169.064 95.3767 168.471 95.3767" fill="#D8DBCC"/>
<path d="M101.987 158.202H90.5807L93.9308 64.5038H98.6371L101.987 158.202Z" fill="#DAD9D8"/>
<path d="M93.4644 77.5491L93.7249 70.2712L93.4644 77.5491Z" fill="#B5B5B4"/>
<path d="M99.7766 62.9786C99.7766 64.9067 98.2128 66.4698 96.2839 66.4698C94.3552 66.4698 92.7914 64.9067 92.7914 62.9786C92.7914 61.0484 94.3552 59.4852 96.2839 59.4852C98.2128 59.4852 99.7766 61.0484 99.7766 62.9786Z" fill="#838585"/>
<path d="M98.2779 17.3182C98.1756 16.1664 97.4944 15.137 96.4553 14.6286L96.406 14.6096L96.3689 14.559C95.3571 17.0187 91.8258 52.9247 91.4104 57.1839C91.3841 57.4454 91.4771 57.7028 91.6625 57.8927L94.3526 60.6224C94.5199 60.7933 94.749 60.8882 94.9871 60.8882H97.5709C97.8091 60.8882 98.0381 60.7933 98.2054 60.6224L100.905 57.8821C101.085 57.6986 101.178 57.4518 101.16 57.1986C100.874 53.18 98.511 19.9741 98.2779 17.3182Z" fill="#ECEEE7"/>
<path d="M55.8268 84.2299C54.8793 84.8944 54.3288 85.9997 54.4087 87.1536L54.4169 87.2064L54.3914 87.2612C57.0271 86.9089 89.8838 72.0157 93.7791 70.2459C94.0198 70.1362 94.197 69.9273 94.267 69.6721L95.287 65.9783C95.3505 65.7463 95.3182 65.5016 95.1997 65.2948L93.9078 63.0566C93.7882 62.8499 93.5914 62.7001 93.3607 62.641L89.6366 61.6728C89.3894 61.6074 89.1297 61.6496 88.9173 61.793C85.5811 64.0502 58.0092 82.7005 55.8268 84.2299" fill="#ECEEE7"/>
<path d="M135.785 86.4408C136.849 86.8965 138.078 86.7804 139.016 86.1033L139.056 86.0674L139.117 86.059C137.427 84.0064 107.433 63.9618 103.874 61.5865C103.655 61.4388 103.384 61.3987 103.13 61.4747L99.4536 62.559C99.2254 62.6265 99.0326 62.7826 98.9204 62.9935L97.7019 65.2718C97.5899 65.4828 97.5661 65.7296 97.6367 65.9574L98.7804 69.6301C98.8563 69.8748 99.0301 70.0731 99.2632 70.1786C102.941 71.8198 133.334 85.3945 135.785 86.4408Z" fill="#ECEEE7"/>
<path d="M101.987 158.202L99.7065 94.4294L101.987 158.202ZM99.5994 91.4423L98.824 69.7438L99.6002 91.4423H99.5994Z" fill="#FAFBF9"/>
<path d="M99.7065 94.4294L99.5994 91.4424H99.6002L99.7065 94.4294" fill="#D1D6C5"/>
<path d="M92.8234 62.502L89.6366 61.6729L92.8234 62.4998C92.8234 62.502 92.8234 62.502 92.8234 62.502ZM99.7403 62.4745L103.13 61.4746L99.7403 62.4745ZM100.905 57.8821C101.085 57.6986 101.178 57.4518 101.16 57.1986C100.915 53.7601 99.1503 28.9628 98.4994 20.204C99.1503 28.9628 100.915 53.7601 101.16 57.1986C101.178 57.4518 101.085 57.6986 100.905 57.8821ZM91.4417 57.5193C91.4104 57.4117 91.3988 57.2978 91.4096 57.1838C91.8167 53.0197 95.2005 18.6156 96.2971 14.7741C95.2005 18.6156 91.8167 53.0197 91.4104 57.1838C91.3988 57.2978 91.4104 57.4117 91.4417 57.5193M98.1813 16.7634C97.9426 15.8415 97.3237 15.0526 96.4553 14.6286L96.406 14.6096L96.4553 14.6286C97.3237 15.0526 97.9426 15.8415 98.1813 16.7634Z" fill="#FAFBF9"/>
<path d="M101.987 158.202H90.5807L93.4644 77.549L93.4619 77.6144L98.9658 73.7118L98.824 69.7438L99.5994 91.4423L99.7065 94.4294L101.987 158.202Z" fill="#D3D4D0"/>
<path d="M93.4619 77.6145L93.4644 77.5491L93.7249 70.2713C93.7437 70.2628 93.7618 70.2544 93.7791 70.2459C94.0198 70.1363 94.197 69.9274 94.267 69.6722L95.198 66.2991C95.5399 66.4109 95.905 66.4699 96.2839 66.4699C96.7899 66.4699 97.2693 66.3623 97.7036 66.1704L98.7804 69.63C98.7928 69.67 98.8067 69.708 98.824 69.7439L98.9658 73.7119L93.4619 77.6145" fill="#B0B0AD"/>
<path d="M96.2839 66.4698C95.905 66.4698 95.5399 66.4108 95.198 66.299L95.287 65.9783C95.3505 65.7463 95.3182 65.5016 95.1997 65.2949L93.9078 63.0567C93.7882 62.8499 93.5914 62.7001 93.3607 62.6411L92.8234 62.5019C92.8234 62.5019 92.8234 62.5019 92.8234 62.4998L92.839 62.504C92.9595 61.6264 93.4009 60.8585 94.0487 60.3143L94.3526 60.6223C94.5199 60.7931 94.749 60.8881 94.9871 60.8881H97.5709C97.8091 60.8881 98.0381 60.7931 98.2054 60.6223L98.5135 60.3101C99.1577 60.848 99.6002 61.6074 99.7264 62.4787L99.7403 62.4744L99.4536 62.5588C99.2254 62.6263 99.0326 62.7824 98.9204 62.9934L97.7019 65.2717C97.5899 65.4826 97.5661 65.7294 97.6367 65.9573L97.7036 66.1703C97.2693 66.3623 96.7899 66.4698 96.2839 66.4698" fill="#7E8081"/>
<path d="M97.5709 60.8882H94.9871C94.7489 60.8882 94.5199 60.7933 94.3526 60.6224L94.0487 60.3144L91.6625 57.8927C91.6568 57.8864 91.6511 57.88 91.6452 57.8737C91.5496 57.7724 91.4813 57.6501 91.4416 57.5193C91.4104 57.4117 91.3988 57.2978 91.4104 57.1839C91.8167 53.0197 95.2005 18.6156 96.2971 14.7742C96.3227 14.6877 96.3465 14.6138 96.3689 14.559L96.406 14.6096L96.4553 14.6286C97.3237 15.0526 97.9426 15.8416 98.1813 16.7634C98.2284 16.9427 98.2613 17.1284 98.2779 17.3182C98.3117 17.7022 98.3899 18.7232 98.4994 20.2041C99.1503 28.9628 100.915 53.7601 101.16 57.1986C101.178 57.4518 101.085 57.6986 100.905 57.8821L98.5135 60.3102L98.2054 60.6224C98.0381 60.7933 97.809 60.8882 97.5709 60.8882" fill="#E6E7DE"/>
<path d="M54.3914 87.2612C55.8112 87.0714 65.9957 82.6646 75.7014 78.3612C65.9974 82.6646 55.8112 87.0714 54.3914 87.2612ZM54.4169 87.2064L54.4087 87.1536C54.3296 86.0082 54.8702 84.9112 55.8044 84.2467C54.8702 84.9112 54.3296 86.0082 54.4087 87.1536L54.4169 87.2064ZM118.384 78.7114C109.894 74.9248 101.132 71.0116 99.2632 70.1784C99.26 70.1763 99.2566 70.1741 99.2535 70.172C99.2566 70.1741 99.26 70.1763 99.2632 70.1784C101.132 71.0116 109.894 74.9248 118.384 78.7114Z" fill="#FAFBF9"/>
<path d="M55.8268 84.23C57.9558 82.7386 84.2497 64.9511 88.6304 61.9872C84.2497 64.9511 57.9558 82.7386 55.8268 84.23M75.7946 78.3191C75.8045 78.3149 75.8159 78.3107 75.8258 78.3064C75.8151 78.3107 75.8054 78.3149 75.7946 78.3191Z" fill="#FAFBF9"/>
<path d="M54.3914 87.2612L54.4169 87.2064L54.4087 87.1536C54.3296 86.0082 54.8702 84.9112 55.8044 84.2467C55.8118 84.2404 55.8194 84.2362 55.8268 84.2299C57.9558 82.7384 84.2497 64.951 88.6304 61.9871C88.7401 61.9133 88.8365 61.85 88.9173 61.793C89.0656 61.6939 89.236 61.6432 89.41 61.6432C89.4857 61.6432 89.5615 61.6517 89.6366 61.6728L92.8234 62.5018L93.3607 62.641C93.5914 62.7001 93.7882 62.8499 93.9078 63.0566L95.1997 65.2948C95.3182 65.5016 95.3505 65.7463 95.287 65.9783L95.198 66.299L94.267 69.6721C94.197 69.9273 94.0198 70.1362 93.7791 70.2459C93.7618 70.2543 93.7437 70.2627 93.7249 70.2712C91.8504 71.1213 84.0238 74.6695 75.8258 78.3063C75.8159 78.3105 75.8045 78.3148 75.7946 78.319C75.764 78.3338 75.7328 78.3464 75.7014 78.3612C65.9957 82.6646 55.8112 87.0714 54.3914 87.2612" fill="#E6E7DE"/>
<path d="M137.11 86.7129C136.662 86.7129 136.21 86.6222 135.785 86.4408C135.428 86.2889 134.477 85.8712 133.103 85.2615C132.285 84.8987 131.317 84.4705 130.234 83.9895C129.208 83.5338 128.079 83.0318 126.878 82.496C124.284 81.3421 121.349 80.0342 118.384 78.7115C118.383 78.7115 118.385 78.7115 118.384 78.7115C109.894 74.9249 101.132 71.0118 99.2632 70.1785C99.26 70.1764 99.2566 70.1743 99.2535 70.1722C99.0522 70.0793 98.9082 69.9085 98.8225 69.706L98.824 69.7439C98.8067 69.7081 98.7928 69.6701 98.7804 69.63L97.7036 66.1704L97.6367 65.9574C97.5661 65.7295 97.5899 65.4827 97.7019 65.2718L98.9204 62.9935C99.0326 62.7825 99.2254 62.6264 99.4536 62.5589L99.7403 62.4745L103.13 61.4746C103.214 61.4493 103.299 61.4367 103.384 61.4367C103.557 61.4367 103.727 61.4873 103.874 61.5864C107.433 63.9617 137.427 84.0064 139.117 86.0589L139.056 86.0674L139.016 86.1032C138.452 86.5083 137.784 86.7129 137.11 86.7129" fill="#E6E7DE"/>
<path d="M52.2081 158.202H39.6967L43.3714 55.4223H48.5334L52.2081 158.202Z" fill="#DAD9D8"/>
<path d="M48.8943 65.5227L48.7764 62.215L48.8943 65.5227Z" fill="#DAD9D8"/>
<path d="M42.8574 69.8051L43.3714 55.4224H48.5334L48.7764 62.215L48.8943 65.5227L42.8574 69.8051Z" fill="#B5B5B4"/>
<path d="M49.7831 53.7495C49.7831 55.8653 48.0687 57.5803 45.9527 57.5803C43.837 57.5803 42.1215 55.8653 42.1215 53.7495C42.1215 51.6336 43.837 49.9165 45.9527 49.9165C48.0687 49.9165 49.7831 51.6336 49.7831 53.7495Z" fill="#838585"/>
<path d="M48.1394 3.66333C48.0282 2.39973 47.2801 1.27114 46.1407 0.714231L46.0863 0.693141L46.0468 0.638291C44.9361 3.33636 41.0629 42.721 40.6064 47.3915C40.5784 47.6805 40.6796 47.9632 40.8832 48.1699L43.8336 51.1654C44.0175 51.3511 44.2687 51.4565 44.5298 51.4565H47.3643C47.6254 51.4565 47.8766 51.3511 48.0597 51.1654L51.0217 48.1594C51.2185 47.959 51.3208 47.6889 51.301 47.4084C50.9877 43.0016 48.3957 6.57657 48.1394 3.66333" fill="#ECEEE7"/>
<path d="M1.5737 77.0619C0.534728 77.7897 -0.0683859 79.0005 0.0189503 80.2683L0.0280136 80.3253L0 80.3865C2.89115 80.0004 38.9321 63.6622 43.2059 61.7215C43.4695 61.6012 43.6631 61.3734 43.7406 61.0928L44.8587 57.0383C44.9287 56.7873 44.8941 56.5173 44.7631 56.2916L43.3459 53.8361C43.2149 53.6104 42.9989 53.4458 42.7452 53.3783L38.6611 52.3172C38.39 52.2455 38.1049 52.294 37.8726 52.4501C34.2127 54.9246 3.96803 75.3827 1.5737 77.0619Z" fill="#ECEEE7"/>
<path d="M89.2822 79.4855C90.4497 79.9833 91.7969 79.8567 92.826 79.1142L92.8696 79.0762L92.9371 79.0678C91.0825 76.8148 58.1824 54.8273 54.2786 52.2221C54.0371 52.0617 53.7405 52.0174 53.4629 52.0997L49.4298 53.2895C49.1784 53.3633 48.9675 53.5342 48.8447 53.7662L47.5083 56.266C47.3847 56.4959 47.3592 56.766 47.4366 57.017L48.6916 61.0462C48.7747 61.3141 48.9652 61.5314 49.2212 61.6474C53.2552 63.4489 86.5938 78.3379 89.2822 79.4855" fill="#ECEEE7"/>
<path d="M198.211 158.202H195.016V92.843H198.211V158.202Z" fill="#A5A5A4"/>
<path d="M200.081 158.202H193.145V155.572H200.081V158.202Z" fill="#6A6B6D"/>
<path d="M141.379 107.359V158.202H144.573V107.359H141.379Z" fill="#A5A5A4"/>
<path d="M146.445 158.202H139.508V155.572H146.445V158.202Z" fill="#6A6B6D"/>
<path d="M114.29 121.642V158.202H117.485V121.642H114.29Z" fill="#A5A5A4"/>
<path d="M119.355 158.202H112.42V155.572H119.355V158.202Z" fill="#6A6B6D"/>
<path d="M159.833 121.642V158.202H163.027V121.642H159.833Z" fill="#A5A5A4"/>
<path d="M164.897 158.202H157.961V155.572H164.897V158.202Z" fill="#6A6B6D"/>
<path d="M140.209 88.1347L105.294 125.207C104.441 126.114 105.083 127.604 106.328 127.604H166.749C168.601 127.604 170.37 126.838 171.641 125.49L206.555 88.4174C207.409 87.5103 206.767 86.0231 205.521 86.0231H145.102C143.249 86.0231 141.479 86.7867 140.209 88.1347" fill="#95C2DD"/>
<path d="M183.344 87.7698C182.841 88.5102 182.252 89.1283 181.618 89.5417L181.27 89.9784C180.058 91.4108 178.71 92.5436 177.419 93.6279C177.024 93.9591 176.644 94.1616 176.283 94.2776C173.934 97.3849 171.204 100.163 168.797 103.184C166.463 106.11 163.822 108.439 161.281 110.924C160.708 111.654 160.064 112.327 159.311 113C158.003 114.17 157.137 115.449 155.886 116.807C155.506 117.221 154.921 117.687 154.404 118.155C154.166 118.406 153.928 118.64 153.69 118.881L153.564 119.037C152.946 119.896 152.301 120.775 151.63 121.537C150.865 122.404 150.132 123.174 149.334 123.921L149.327 123.927L149.334 123.921C149.117 124.121 147.42 125.682 147.708 125.195L147.484 125.547L168.881 125.549L204.095 87.8351L183.344 87.7698" fill="#BBD9EA"/>
<path d="M183.344 87.7697C182.841 88.5101 182.252 89.1282 181.618 89.5417L181.27 89.9783C180.058 91.4107 178.71 92.5435 177.419 93.6278C177.024 93.959 176.644 94.1615 176.283 94.2775C173.934 97.3849 171.204 100.163 168.797 103.184C168.101 104.057 167.375 104.876 166.636 105.663H166.674L183.511 87.7697H183.344Z" fill="#95C2DD"/>
<path d="M164.736 107.589C163.589 108.711 162.427 109.801 161.284 110.919C160.711 111.649 160.066 112.324 159.311 112.999C158.003 114.17 157.137 115.449 155.886 116.807C155.506 117.221 154.921 117.687 154.404 118.155C154.166 118.406 153.928 118.64 153.69 118.881L153.564 119.037C152.946 119.895 152.301 120.775 151.63 121.537C150.865 122.404 150.132 123.174 149.334 123.92L149.327 123.927L149.334 123.92C149.117 124.121 147.42 125.682 147.708 125.195L147.484 125.547H148.167L165.067 107.589H164.736" fill="#95C2DD"/>
<path d="M187.319 105.698L204.095 87.8351L185.097 87.776L168.264 105.665L187.319 105.698Z" fill="#95C2DD"/>
<path d="M187.224 104.926L202.556 88.6007L185.192 88.5459L169.811 104.895L187.224 104.926Z" fill="#2E66B1"/>
<path d="M174.165 105.245L190.337 88.0481L189.677 88.046L173.502 105.243L174.165 105.245Z" fill="#95C2DD"/>
<path d="M178.437 105.251L194.596 88.0608L193.936 88.0587L177.775 105.251H178.437Z" fill="#95C2DD"/>
<path d="M199.212 92.843L200.002 92.0013L181.746 91.9486C181.485 92.2713 181.204 92.5456 180.914 92.7924L199.212 92.843Z" fill="#95C2DD"/>
<path d="M194.961 97.1782L195.752 96.3365L177.481 96.2922C177.22 96.615 176.939 96.8892 176.649 97.136L194.961 97.1782Z" fill="#95C2DD"/>
<path d="M190.706 101.52L191.498 100.676L173.212 100.638C172.952 100.961 172.671 101.235 172.38 101.482L190.706 101.52Z" fill="#95C2DD"/>
<path d="M182.706 105.26L198.853 88.0757L198.194 88.0735L182.045 105.258L182.706 105.26Z" fill="#95C2DD"/>
<path d="M168.881 125.549L185.719 107.62L166.657 107.591L149.762 125.547L168.881 125.549" fill="#95C2DD"/>
<path d="M168.785 124.777L184.175 108.39L166.753 108.363L151.315 124.773L168.785 124.777" fill="#2E66B1"/>
<path d="M155.682 125.117L171.915 107.857L171.252 107.855L155.018 125.117H155.682Z" fill="#95C2DD"/>
<path d="M159.969 125.117L176.188 107.863L175.527 107.861L159.305 125.117H159.969Z" fill="#95C2DD"/>
<path d="M180.819 112.647L181.611 111.801L163.294 111.78C163.032 112.103 162.751 112.377 162.459 112.626L180.819 112.647Z" fill="#95C2DD"/>
<path d="M176.551 116.999L177.345 116.155L159.013 116.138C158.752 116.461 158.47 116.737 158.178 116.984L176.551 116.999Z" fill="#95C2DD"/>
<path d="M172.28 121.357L173.075 120.512L154.729 120.501C154.467 120.824 154.185 121.1 153.894 121.347L172.28 121.357Z" fill="#95C2DD"/>
<path d="M164.252 125.119L180.46 107.869L179.799 107.867L163.59 125.117L164.252 125.119Z" fill="#95C2DD"/>
<path d="M143.856 87.6452L108.257 125.541L148.285 125.547L183.629 87.7718L143.856 87.6452" fill="#BBD9EA"/>
<path d="M146.079 105.627L162.978 87.7064L143.856 87.6452L126.897 105.593L146.079 105.627" fill="#95C2DD"/>
<path d="M145.982 104.853L161.429 88.4743L143.951 88.4194L128.456 104.821L145.982 104.853Z" fill="#2E66B1"/>
<path d="M132.837 105.171L149.13 87.9195L148.466 87.9174L132.172 105.171H132.837" fill="#95C2DD"/>
<path d="M137.137 105.179L153.417 87.932L152.754 87.9299L136.472 105.177L137.137 105.179Z" fill="#95C2DD"/>
<path d="M158.06 92.7292L158.856 91.8854L140.479 91.8327C140.217 92.1555 139.934 92.4318 139.642 92.6786L158.06 92.7292Z" fill="#95C2DD"/>
<path d="M153.778 97.0791L154.574 96.2353L136.183 96.1889C135.92 96.5138 135.637 96.788 135.345 97.0348L153.778 97.0791" fill="#95C2DD"/>
<path d="M149.491 101.435L150.288 100.589L131.883 100.549C131.621 100.874 131.337 101.148 131.044 101.397L149.491 101.435Z" fill="#95C2DD"/>
<path d="M141.435 105.186L157.703 87.9468L157.039 87.9447L140.77 105.186H141.435Z" fill="#95C2DD"/>
<path d="M127.502 125.543L144.465 107.555L125.279 107.525L108.257 125.541L127.502 125.543Z" fill="#95C2DD"/>
<path d="M127.406 124.769L142.912 108.327L125.374 108.302L109.821 124.764L127.406 124.769Z" fill="#2E66B1"/>
<path d="M114.218 125.108L130.57 107.791H129.904L113.548 125.108H114.218" fill="#95C2DD"/>
<path d="M118.532 125.11L134.873 107.798H134.207L117.864 125.11H118.532" fill="#95C2DD"/>
<path d="M139.529 112.599L140.328 111.751L121.889 111.727C121.626 112.052 121.342 112.329 121.049 112.575L139.529 112.599Z" fill="#95C2DD"/>
<path d="M135.23 116.965L136.03 116.117L117.578 116.1C117.314 116.425 117.03 116.702 116.736 116.951L135.23 116.965" fill="#95C2DD"/>
<path d="M130.927 121.336L131.728 120.488L113.261 120.478C112.997 120.803 112.713 121.079 112.42 121.328L130.927 121.336Z" fill="#95C2DD"/>
<path d="M122.843 125.11L139.172 107.804H138.506L122.176 125.11H122.843Z" fill="#95C2DD"/>
<path d="M166.792 105.663L183.629 87.7718L164.569 87.7106L147.674 105.629L166.792 105.663" fill="#95C2DD"/>
<path d="M166.696 104.888L182.086 88.5376L164.665 88.4827L149.227 104.857L166.696 104.888Z" fill="#2E66B1"/>
<path d="M153.594 105.209L169.826 87.9848L169.164 87.9827L152.93 105.207L153.594 105.209Z" fill="#95C2DD"/>
<path d="M157.881 105.215L174.1 87.9975L173.438 87.9953L157.216 105.215H157.881" fill="#95C2DD"/>
<path d="M178.729 92.7861L179.522 91.9444L161.205 91.8917C160.944 92.2145 160.662 92.4887 160.371 92.7355L178.729 92.7861Z" fill="#95C2DD"/>
<path d="M174.462 97.1296L175.256 96.2858L156.925 96.2415C156.663 96.5643 156.381 96.8385 156.09 97.0853L174.462 97.1296" fill="#95C2DD"/>
<path d="M170.192 101.477L170.986 100.633L152.641 100.593C152.379 100.916 152.098 101.192 151.806 101.439L170.192 101.477Z" fill="#95C2DD"/>
<path d="M162.163 105.224L178.37 88.0102L177.709 88.0081L161.501 105.222L162.163 105.224Z" fill="#95C2DD"/>
<path d="M148.285 125.547L165.185 107.589L146.061 107.559L129.103 125.543L148.285 125.547Z" fill="#95C2DD"/>
<path d="M148.19 124.771L163.637 108.358L146.157 108.333L130.661 124.768L148.19 124.771" fill="#2E66B1"/>
<path d="M135.043 125.112L151.335 107.823H150.671L134.377 125.112H135.043" fill="#95C2DD"/>
<path d="M139.344 125.112L155.624 107.831L154.96 107.829L138.678 125.112H139.344" fill="#95C2DD"/>
<path d="M160.267 112.622L161.063 111.776L142.685 111.755C142.422 112.078 142.14 112.354 141.848 112.601L160.267 112.622" fill="#95C2DD"/>
<path d="M155.984 116.982L156.781 116.136L138.389 116.119C138.126 116.444 137.844 116.718 137.551 116.967L155.984 116.982Z" fill="#95C2DD"/>
<path d="M151.697 121.347L152.495 120.499L134.089 120.488C133.826 120.813 133.543 121.09 133.25 121.338L151.697 121.347Z" fill="#95C2DD"/>
<path d="M143.642 125.115L159.909 107.838L159.245 107.835L142.976 125.115H143.642Z" fill="#95C2DD"/>
<path d="M35.6069 156.804H18.8572V113.276C18.8572 108.696 22.569 104.983 27.1484 104.983H27.3156C31.895 104.983 35.6069 108.696 35.6069 113.276V156.804" fill="#2E272D"/>
<path d="M37.4664 158.202H16.9976V154.165H37.4664V158.202Z" fill="#989998"/>
<path d="M32.7206 126.775C32.7206 129.806 30.2635 132.264 27.2315 132.264C24.2003 132.264 21.7434 129.806 21.7434 126.775C21.7434 123.741 24.2003 121.284 27.2315 121.284C30.2635 121.284 32.7206 123.741 32.7206 126.775Z" fill="#FBC807"/>
<path d="M26.3886 126.775L28.7402 123.427H26.6639L25.1652 127.901L28.0522 127.1L27.164 129.171L26.7957 128.652L26.7174 130.58L28.1239 129.26L27.4903 129.321L29.7767 125.798L26.3886 126.775" fill="#2E272D"/>
<path d="M65.315 156.804H48.5663V113.276C48.5663 108.696 52.2782 104.983 56.8567 104.983H57.024C61.6034 104.983 65.315 108.696 65.315 113.276V156.804Z" fill="#2E272D"/>
<path d="M67.1754 158.202H46.706V154.165H67.1754V158.202Z" fill="#989998"/>
<path d="M62.4289 126.775C62.4289 129.806 59.9719 132.264 56.9407 132.264C53.9095 132.264 51.4518 129.806 51.4518 126.775C51.4518 123.741 53.9095 121.284 56.9407 121.284C59.9719 121.284 62.4289 123.741 62.4289 126.775Z" fill="#FBC807"/>
<path d="M56.0978 126.775L58.4492 123.427H56.3722L54.8734 127.901L57.7605 127.1L56.8723 129.171L56.5049 128.652L56.4258 130.58L57.8322 129.26L57.1995 129.321L59.485 125.798L56.0978 126.775" fill="#2E272D"/>
</svg>
