<svg width="129" height="159" viewBox="0 0 129 159" fill="none" xmlns="http://www.w3.org/2000/svg">
<path d="M38.3657 158.076H91.0695V141.943H88.8148V156.121H40.6226V39.4498H31.5993V156.121H29.3044H23.698V39.4498H14.6746V156.121H9.78328H8.48822H8.40596V16.2874H6.14905V158.076H8.48822H9.78328H16.9294V41.4054H21.4411V158.076H29.3044H33.5123H33.854V41.4054H38.3657V158.076Z" fill="#433C44"/>
<path d="M22.8205 6.6106H29.6376V3.0607H22.8205V6.6106Z" fill="#D1DCDA"/>
<path d="M22.8205 10.8257H29.6376V8.45648H22.8205V10.8257Z" fill="#D1DCDA"/>
<path d="M1.24502 0.123702H12.9872C13.6411 0.123702 14.1726 0.653615 14.1726 1.30799V16.3655C14.1726 17.0188 13.6411 17.5487 12.9872 17.5487H11.0952V24.5101C11.0952 25.1645 10.5637 25.6934 9.90984 25.6934H4.32244C3.66857 25.6934 3.13912 25.1645 3.13912 24.5101V17.5487H1.24502C0.591156 17.5487 0.0617371 17.0188 0.0617371 16.3655V1.30799C0.0617371 0.653615 0.591156 0.123702 1.24502 0.123702" fill="#2E272D"/>
<path d="M7.63818 12.106H26.4822V2.01656H7.63818V12.106Z" fill="#2E272D"/>
<path d="M28.6843 5.78174H29.6377V3.88718H28.6843V5.78174Z" fill="#515154"/>
<path d="M28.6843 10.374H29.6377V8.90813H28.6843V10.374Z" fill="#515154"/>
<path d="M117.171 147.219H60.2935C57.7012 147.219 55.6004 145.115 55.6004 142.523V130.535H121.865V142.523C121.865 145.115 119.764 147.219 117.171 147.219Z" fill="#D7D7D8"/>
<path d="M55.6004 140.496H121.864V130.535H55.6004V140.496Z" fill="#C2C2C4"/>
<path d="M122.417 135.07H55.0478C51.8312 135.07 49.2241 132.46 49.2241 129.245V61.8676C49.2241 58.6505 51.8312 56.0432 55.0478 56.0432H122.417C125.634 56.0432 128.241 58.6505 128.241 61.8676V129.245C128.241 132.46 125.634 135.07 122.417 135.07" fill="#D7D7D8"/>
<path d="M59.1102 61.7283C56.7942 61.7283 54.9107 63.6145 54.9107 65.9309V125.18C54.9107 127.497 56.7942 129.383 59.1102 129.383H118.355C120.671 129.383 122.554 127.497 122.554 125.18V65.9309C122.554 63.6145 120.671 61.7283 118.355 61.7283H59.1102ZM118.355 131.222H59.1102C55.7818 131.222 53.0714 128.512 53.0714 125.18V65.9309C53.0714 62.5994 55.7818 59.8891 59.1102 59.8891H118.355C121.683 59.8891 124.394 62.5994 124.394 65.9309V125.18C124.394 128.512 121.683 131.222 118.355 131.222Z" fill="#B9BABC"/>
<path d="M128.241 88.8423V81.7919H49.2241V88.8423H128.241Z" fill="#433C44"/>
<path d="M79.5678 110.76C79.5678 116.601 74.8347 121.334 68.9941 121.334C63.1536 121.334 58.4184 116.601 58.4184 110.76C58.4184 104.919 63.1536 100.185 68.9941 100.185C74.8347 100.185 79.5678 104.919 79.5678 110.76Z" fill="#78D0D2"/>
<path d="M76.465 110.76C76.465 114.886 73.1198 118.232 68.9941 118.232C64.8684 118.232 61.5231 114.886 61.5231 110.76C61.5231 106.634 64.8684 103.288 68.9941 103.288C73.1198 103.288 76.465 106.634 76.465 110.76" fill="#5E5962"/>
<path d="M72.7106 109.866H65.2776V106.999H72.7106V109.866Z" fill="#2E272D"/>
<path d="M72.7106 114.523H65.2776V112.456H72.7106V114.523Z" fill="#2E272D"/>
<path d="M115.725 108.804H97.5871C96.659 108.804 96.098 107.777 96.6021 106.997L105.67 92.9343C106.132 92.2192 107.18 92.2192 107.642 92.9343L116.71 106.997C117.214 107.777 116.653 108.804 115.725 108.804" fill="#FBC807"/>
<path d="M105.322 102.294L107.851 98.6952H105.619L104.008 103.507L107.11 102.645L106.157 104.872L105.76 104.313L105.676 106.387L107.188 104.965L106.507 105.033L108.964 101.246L105.322 102.294" fill="#2E272D"/>
</svg>
