<svg width="167" height="157" viewBox="0 0 167 157" fill="none" xmlns="http://www.w3.org/2000/svg">
<path d="M107.288 69.3687C109.559 67.3564 110.262 64.4385 108.855 62.8505L108.802 62.7937C107.397 61.2051 104.415 61.551 102.145 63.565L89.513 74.7882C89.4012 74.5518 89.2873 74.2758 89.1713 74.0434L107.307 57.9013C109.935 55.5727 110.747 52.1991 109.123 50.364L109.062 50.2965C107.437 48.4613 103.991 48.8619 101.363 51.1889L84.9591 65.7865L84.8874 65.6456C84.7397 65.3688 84.5921 65.1077 84.4445 64.825L86.5537 62.9619L86.6845 62.8226L105.906 45.7421C108.532 43.4174 109.344 40.0422 107.72 38.2088L107.659 38.1413C106.035 36.306 102.586 36.7049 99.9622 39.0336L82.7845 54.2939L80.1142 56.6671C79.9897 56.3449 79.9032 56.0408 79.7872 55.7218L80.5318 55.0643L98.6713 38.9916C101.299 36.6629 102.111 33.2894 100.485 31.4541L100.426 31.3866C98.8021 29.5541 95.3556 29.9519 92.7275 32.2792L57.4735 59.5487C50.88 64.8018 40.9201 83.1885 40.9201 83.1885L30.0322 93.0628L48.5218 113.635L58.5007 104.673C60.0531 104.232 75.3874 97.6337 76.5938 96.5667L93.8517 81.3064L107.288 69.3687" fill="#F9B063"/>
<path d="M20.5848 138.339L0.724091 114.662L36.6151 84.9898L56.48 108.669L20.5848 138.339" fill="#93D48B"/>
<path d="M115.067 0.279396H65.6236C64.7525 0.279396 64.048 1.06055 64.048 2.02481V91.5077C64.048 92.4718 64.7525 93.2546 65.6236 93.2546H115.067C115.938 93.2546 116.642 92.4718 116.642 91.5077V2.02481C116.642 1.06055 115.938 0.279396 115.067 0.279396Z" fill="#2E272D"/>
<path d="M68.8339 80.9033H111.856V9.94362H68.8339V80.9033Z" fill="#DAD9D8"/>
<path d="M94.7692 4.77298C94.4296 4.77298 94.1555 5.04975 94.1555 5.38685C94.1555 5.72627 94.4296 5.99902 94.7692 5.99902C95.1067 5.99902 95.3809 5.72627 95.3809 5.38685C95.3809 5.04975 95.1067 4.77298 94.7692 4.77298Z" fill="#D8D7D5"/>
<path d="M92.1622 85.2911H88.528C88.3149 85.2911 88.1399 85.5128 88.1399 85.7889V86.5273C88.1399 86.8032 88.3149 87.0249 88.528 87.0249H92.1622C92.3752 87.0249 92.5503 86.8032 92.5503 86.5273V85.7889C92.5503 85.5128 92.3752 85.2911 92.1622 85.2911Z" fill="#D8D7D5"/>
<path d="M91.9787 4.77298H86.0644C85.6467 4.77298 85.3071 5.04975 85.3071 5.38685C85.3071 5.72627 85.6467 5.99902 86.0644 5.99902H91.9787C92.3985 5.99902 92.738 5.72627 92.738 5.38685C92.738 5.04975 92.3985 4.77298 91.9787 4.77298Z" fill="#D8D7D5"/>
<path d="M72.4997 38.9536C76.4102 45.5433 67.9817 57.3089 64.3706 62.3247C62.0779 65.5122 57.4734 74.3572 57.4734 74.3572C53.0777 77.6714 41.7468 81.6985 41.7468 81.6985C41.6308 81.977 47.6781 65.0251 50.1079 59.5174C50.3884 59.0872 50.6584 58.675 50.939 58.2434L69.9306 37.5084C69.9306 37.5084 71.1139 36.6224 72.4997 38.9536Z" fill="#F9B063"/>
<path d="M76.0791 20.6954C76.617 20.6954 76.9861 20.4277 77.197 19.8896L77.9711 20.1805C77.8045 20.5925 77.5598 20.8958 77.2392 21.0969C76.9165 21.2971 76.5305 21.396 76.0791 21.396C75.3957 21.396 74.8684 21.2023 74.4972 20.8159C74.1238 20.4303 73.9382 19.8879 73.9382 19.1932C73.9382 18.4977 74.1175 17.9613 74.4782 17.5881C74.8347 17.2147 75.3578 17.0293 76.0411 17.0293C76.5368 17.0293 76.9439 17.1282 77.2561 17.3284C77.5704 17.5271 77.7897 17.8204 77.9162 18.2085L77.1337 18.4237C77.0683 18.2085 76.9355 18.0398 76.7435 17.9153C76.5495 17.7891 76.3217 17.7273 76.058 17.7273C75.6573 17.7273 75.3535 17.8518 75.1447 18.1007C74.938 18.3494 74.8326 18.7129 74.8326 19.1932C74.8326 19.6829 74.938 20.0543 75.1532 20.3115C75.3683 20.5695 75.6762 20.6954 76.0791 20.6954" fill="#100F0D"/>
<path d="M81.2891 21.3352V19.5166H79.4392V21.3352H78.5512V17.093H79.4392V18.7806H81.2891V17.093H82.177V21.3352H81.2891Z" fill="#100F0D"/>
<path d="M84.8199 17.7448L84.8009 17.8123L84.7292 18.0572C84.6996 18.1519 84.5288 18.6603 84.2124 19.5841H85.4316L85.0118 18.3629L84.8831 17.9532L84.8199 17.7448ZM86.0074 21.3352L85.6298 20.2507H84.012L83.6366 21.3352H82.7486L84.2947 17.093H85.343L86.8848 21.3352H86.0074" fill="#100F0D"/>
<path d="M90.2723 18.3924C90.2723 17.9855 90.0086 17.7828 89.4876 17.7828H88.3487V19.0335H89.513C89.7598 19.0335 89.9496 18.9785 90.0782 18.8648C90.2069 18.7525 90.2723 18.5943 90.2723 18.3924ZM90.3777 21.3352L89.3906 19.7233H88.3487V21.3352H87.4606V17.093H89.5825C90.0888 17.093 90.479 17.2001 90.7532 17.4176C91.0274 17.6368 91.1666 17.9492 91.1666 18.3587C91.1666 18.6538 91.0822 18.9107 90.9135 19.1259C90.7448 19.3417 90.5149 19.4852 90.228 19.5527L91.3754 21.3352H90.3777" fill="#100F0D"/>
<path d="M93.9298 20.6997C94.1618 20.6997 94.3854 20.6659 94.6026 20.5982C94.8178 20.5307 94.9865 20.4442 95.1046 20.3412V19.7529H94.069V19.0968H95.9188V20.6577C95.6931 20.8899 95.402 21.0688 95.0414 21.1998C94.6786 21.3308 94.3031 21.396 93.9066 21.396C93.2168 21.396 92.6853 21.204 92.3119 20.8224C91.9407 20.44 91.7551 19.8961 91.7551 19.1932C91.7551 18.4954 91.9428 17.9598 92.3162 17.5864C92.6895 17.2147 93.2274 17.0293 93.9277 17.0293C94.9232 17.0293 95.556 17.3961 95.8281 18.1345L95.0097 18.3792C94.919 18.1665 94.7819 18.0043 94.5942 17.8921C94.4043 17.7826 94.1829 17.7273 93.9277 17.7273C93.51 17.7273 93.1936 17.8543 92.9764 18.1056C92.7591 18.3585 92.6494 18.7237 92.6494 19.1932C92.6494 19.6729 92.7634 20.0438 92.9848 20.3058C93.2105 20.5695 93.5248 20.6997 93.9298 20.6997" fill="#100F0D"/>
<path d="M96.7139 21.3352V17.093H97.6019V21.3352H96.7139Z" fill="#100F0D"/>
<path d="M101.011 21.3352L99.1607 18.0669C99.1987 18.3859 99.2155 18.6414 99.2155 18.8333V21.3352H98.4246V17.093H99.4412L101.316 20.3874C101.283 20.0843 101.264 19.8073 101.264 19.5586V17.093H102.052V21.3352H101.011Z" fill="#100F0D"/>
<path d="M104.896 20.6997C105.128 20.6997 105.349 20.6659 105.568 20.5982C105.784 20.5307 105.952 20.4442 106.071 20.3412V19.7529H105.033V19.0968H106.883V20.6577C106.659 20.8899 106.366 21.0688 106.005 21.1998C105.644 21.3308 105.267 21.396 104.87 21.396C104.181 21.396 103.651 21.204 103.278 20.8224C102.907 20.44 102.721 19.8961 102.721 19.1932C102.721 18.4954 102.909 17.9598 103.28 17.5864C103.653 17.2147 104.191 17.0293 104.894 17.0293C105.887 17.0293 106.522 17.3961 106.792 18.1345L105.973 18.3792C105.885 18.1665 105.748 18.0043 105.558 17.8921C105.368 17.7826 105.147 17.7273 104.894 17.7273C104.474 17.7273 104.157 17.8543 103.94 18.1056C103.723 18.3585 103.615 18.7237 103.615 19.1932C103.615 19.6729 103.727 20.0438 103.951 20.3058C104.174 20.5695 104.491 20.6997 104.896 20.6997" fill="#100F0D"/>
<path d="M77.6779 40.8966C77.6779 40.8966 77.1802 41.6919 77.9859 41.6919C78.7916 41.6919 101.548 41.6919 102.061 41.6919C102.573 41.6919 102.816 40.8373 102.253 40.6914C101.688 40.5464 78.3381 40.6709 77.6779 40.8966" fill="#222020"/>
<path d="M78.1293 40.8967H86.2858C86.2858 40.8967 84.8494 35.6987 81.8479 36.4815C78.8465 37.2635 77.9015 38.8845 78.1293 40.8967Z" fill="#201A1E"/>
<path d="M95.7142 40.8967H102.238C102.238 40.8967 102.434 35.6987 99.4328 36.4815C96.4313 37.2635 95.4843 38.8845 95.7142 40.8967" fill="#201A1E"/>
<path d="M102.525 40.8967C102.525 40.8967 102.805 38.2573 102.358 35.8299C102.097 34.4142 101.799 33.0107 100.492 32.3952C97.0346 30.7711 88.644 31.6758 86.52 32.3952C84.3959 33.1162 77.9121 36.5385 77.4797 38.4478C77.4797 38.4478 77.1929 39.599 77.6611 40.8967H78.7769C78.7769 40.8967 78.3087 37.9071 82.1623 37.9071C82.1623 37.9071 85.0794 37.9071 85.0794 40.8967H96.8194C96.8194 40.8967 96.387 37.9179 99.34 37.9179C99.34 37.9179 102.118 37.7976 101.861 40.8967H102.525Z" fill="#2E272D"/>
<path d="M84.1534 40.8965C84.1534 42.1679 83.1219 43.1997 81.848 43.1997C80.5761 43.1997 79.5447 42.1679 79.5447 40.8965C79.5447 39.6217 80.5761 38.5908 81.848 38.5908C83.1219 38.5908 84.1534 39.6217 84.1534 40.8965Z" fill="#2E272D"/>
<path d="M83.2611 40.8966C83.2611 41.677 82.6284 42.3098 81.8479 42.3098C81.0675 42.3098 80.4348 41.677 80.4348 40.8966C80.4348 40.1163 81.0675 39.4835 81.8479 39.4835C82.6284 39.4835 83.2611 40.1163 83.2611 40.8966Z" fill="#BFBCBD"/>
<path d="M101.643 40.8965C101.643 42.1679 100.612 43.1997 99.3399 43.1997C98.0681 43.1997 97.0345 42.1679 97.0345 40.8965C97.0345 39.6217 98.0681 38.5908 99.3399 38.5908C100.612 38.5908 101.643 39.6217 101.643 40.8965Z" fill="#2E272D"/>
<path d="M100.753 40.8966C100.753 41.677 100.12 42.3098 99.3399 42.3098C98.5595 42.3098 97.9268 41.677 97.9268 40.8966C97.9268 40.1163 98.5595 39.4835 99.3399 39.4835C100.12 39.4835 100.753 40.1163 100.753 40.8966Z" fill="#BFBCBD"/>
<path d="M81.848 35.9583C81.848 35.9583 85.98 33.4038 87.9817 32.9834C89.9812 32.5657 97.7601 32.2286 98.9603 32.9834C100.16 33.7407 100.325 35.2917 100.325 35.2917L81.848 35.9583Z" fill="#A5A5A4"/>
<path d="M79.281 36.4683L78.8486 36.7113C78.4499 37.0566 78.1947 37.3484 78.1947 37.3484C78.1947 37.3484 79.2388 37.4201 79.6923 37.1077C79.88 36.9792 79.9306 36.7657 79.9264 36.5613L79.6627 36.3504L79.281 36.4683Z" fill="#ECEBEC"/>
<path d="M92.1896 32.3868L91.4387 35.7407H92.1896L92.7548 32.3868H92.1896Z" fill="#2E272D"/>
<path d="M99.3399 36.3398H97.6378V35.9665H99.3399V36.3398Z" fill="#2E272D"/>
<path d="M90.498 36.5251H88.7979V36.152H90.498V36.5251Z" fill="#2E272D"/>
<path d="M102.5 36.924L102.586 37.8206H101.413L100.69 36.8375L102.5 36.924Z" fill="#C9C8C6"/>
<path d="M102.476 69.5161H76.733C74.9886 69.5161 73.5754 68.1029 73.5754 66.3584V66.2951C73.5754 64.5505 74.9886 63.1374 76.733 63.1374H102.476C104.221 63.1374 105.634 64.5505 105.634 66.2951V66.3584C105.634 68.1029 104.221 69.5161 102.476 69.5161Z" fill="#100F0D"/>
<path d="M92.1073 64.0257H77.2603C75.6994 64.0257 74.436 65.0467 74.436 66.3034V66.3502C74.436 67.6094 75.6994 68.6304 77.2603 68.6304H92.1073V64.0257" fill="#7EB43F"/>
<path d="M149.671 107.623C149.791 106.224 151.409 97.5199 150.911 96.208L141.635 71.7501C140.863 69.7163 138.819 68.6071 137.068 69.2714L137.005 69.2944C135.583 69.8325 134.225 71.067 134.702 73.0816C134.398 73.1426 134.337 73.1533 133.995 73.2211L133.282 71.343C132.504 69.2887 130.268 68.2297 128.289 68.9805L128.218 69.0102C124.349 70.2882 126.043 74.0879 126.043 74.0879C125.771 74.1258 125.514 74.1613 125.239 74.195L124.375 71.9041C123.594 69.8515 121.346 68.8008 119.352 69.5581L119.279 69.5861C117.283 70.3435 116.296 72.622 117.074 74.672L117.277 75.2036C116.969 75.2078 116.691 75.1821 116.391 75.1781L108.6 54.6358C107.515 51.7797 105.02 50.0748 103.023 50.8321L102.951 50.8617C100.956 51.619 100.215 54.5468 101.302 57.4054L115.609 95.1261C115.524 95.4765 115.425 95.7903 115.305 96.0566C115.153 95.6429 115.012 95.2752 114.853 94.8394C109.905 81.2049 105.246 79.4983 102.763 80.0242C100.673 80.4666 101.209 81.8511 101.209 81.8511L110.74 105.889C111.082 106.346 111.411 106.789 111.753 107.247C115.735 110.308 126.754 115.306 126.754 115.306L131.432 127.22L153.885 118.514L149.671 107.623" fill="#F9B063"/>
<path d="M166.551 147.146L141.145 157L127.482 120.98L152.887 111.126L166.551 147.146" fill="#93D48B"/>
<path d="M79.475 28.313H78.8022L78.5132 28.0533L78.8022 27.7921H79.475L79.764 28.0533L79.475 28.313Z" fill="#2E272D"/>
<path d="M77.6674 28.313H76.5305L76.2415 28.0533L76.5305 27.7921H77.6674L77.9564 28.0533L77.6674 28.313Z" fill="#2E272D"/>
<path d="M74.725 28.9187L74.436 28.6575V27.7922H75.3957L75.6847 28.0534L75.3957 28.3131H75.014V28.6575L74.725 28.9187Z" fill="#2E272D"/>
<path d="M74.725 31.3948L74.436 31.1362V29.8975L74.725 29.6355L75.014 29.8975V31.1362L74.725 31.3948ZM74.725 33.8744L74.436 33.6124V32.3739L74.725 32.1142L75.014 32.3739V33.6124L74.725 33.8744ZM74.725 36.3505L74.436 36.091V34.8525L74.725 34.5912L75.014 34.8525V36.091L74.725 36.3505ZM74.725 38.8292L74.436 38.5672V37.3295L74.725 37.0698L75.014 37.3295V38.5672L74.725 38.8292ZM74.725 41.3056L74.436 41.0467V39.8082L74.725 39.5462L75.014 39.8082V41.0467L74.725 41.3056ZM74.725 43.7842L74.436 43.5229V42.2844L74.725 42.0249L75.014 42.2844V43.5229L74.725 43.7842ZM74.725 46.2612L74.436 46.0015V44.7614L74.725 44.5019L75.014 44.7614V46.0015L74.725 46.2612Z" fill="#2E272D"/>
<path d="M75.3957 48.1069H74.436V47.2416L74.725 46.9804L75.014 47.2416V47.5861H75.3957L75.6847 47.8449L75.3957 48.1069" fill="#2E272D"/>
<path d="M77.6674 48.1069H76.5305L76.2415 47.8449L76.5305 47.5861H77.6674L77.9564 47.8449L77.6674 48.1069Z" fill="#2E272D"/>
<path d="M79.475 48.1069H78.8022L78.5132 47.8449L78.8022 47.5861H79.475L79.764 47.8449L79.475 48.1069Z" fill="#2E272D"/>
<path d="M101.787 28.313H102.46L102.749 28.0533L102.46 27.7921H101.787L101.498 28.0533L101.787 28.313Z" fill="#2E272D"/>
<path d="M103.594 28.313H104.731L105.018 28.0533L104.731 27.7921H103.594L103.305 28.0533L103.594 28.313Z" fill="#2E272D"/>
<path d="M106.537 28.9187L106.826 28.6575V27.7922H105.866L105.577 28.0534L105.866 28.3131H106.248V28.6575L106.537 28.9187" fill="#2E272D"/>
<path d="M106.248 31.1362V29.8975L106.537 29.6355L106.826 29.8975V31.1362L106.537 31.3948L106.248 31.1362ZM106.248 33.6124V32.3739L106.537 32.1142L106.826 32.3739V33.6124L106.537 33.8744L106.248 33.6124ZM106.248 36.091V34.8525L106.537 34.5912L106.826 34.8525V36.091L106.537 36.3505L106.248 36.091ZM106.248 38.5672V37.3295L106.537 37.0698L106.826 37.3295V38.5672L106.537 38.8292L106.248 38.5672ZM106.248 41.0467V39.8082L106.537 39.5462L106.826 39.8082V41.0467L106.537 41.3056L106.248 41.0467ZM106.248 43.5229V42.2844L106.537 42.0249L106.826 42.2844V43.5229L106.537 43.7842L106.248 43.5229ZM106.248 46.0015V44.7614L106.537 44.5019L106.826 44.7614V46.0015L106.537 46.2612L106.248 46.0015Z" fill="#2E272D"/>
<path d="M105.866 48.1069H106.826V47.2416L106.537 46.9804L106.248 47.2416V47.5861H105.866L105.577 47.8449L105.866 48.1069" fill="#2E272D"/>
<path d="M103.594 48.1069H104.731L105.018 47.8449L104.731 47.5861H103.594L103.305 47.8449L103.594 48.1069Z" fill="#2E272D"/>
<path d="M101.787 48.1069H102.46L102.749 47.8449L102.46 47.5861H101.787L101.498 47.8449L101.787 48.1069Z" fill="#2E272D"/>
<path d="M80.806 57.5783C80.806 57.2511 80.7301 57.0024 80.5803 56.8292C80.4285 56.6562 80.2218 56.5697 79.9581 56.5697C79.705 56.5697 79.5025 56.6522 79.3506 56.8127C79.1987 56.9752 79.1228 57.1901 79.1228 57.4564C79.1228 57.7892 79.2009 58.0662 79.3612 58.2854C79.5194 58.5046 79.7282 58.6141 79.9855 58.6141C80.2449 58.6141 80.4453 58.5219 80.5909 58.3381C80.7343 58.1544 80.806 57.9013 80.806 57.5783ZM81.9556 57.5445C81.9556 58.1567 81.7847 58.6373 81.443 58.9858C81.0992 59.3319 80.6267 59.5066 80.0235 59.5066C79.3464 59.5066 78.8275 59.2701 78.4647 58.7955C78.1019 58.3208 77.9205 57.6163 77.9205 56.6843C77.9205 55.6607 78.1041 54.8887 78.4711 54.372C78.8402 53.8529 79.3675 53.5934 80.0509 53.5934C80.5381 53.5934 80.922 53.7012 81.2025 53.9164C81.4852 54.1313 81.6835 54.4651 81.8016 54.9159L80.7195 55.0659C80.6162 54.6885 80.3862 54.499 80.0277 54.499C79.7197 54.499 79.4793 54.6522 79.3042 54.9604C79.1291 55.266 79.0406 55.7325 79.0406 56.3596C79.1629 56.1544 79.3337 55.9987 79.551 55.8907C79.7682 55.7812 80.013 55.7268 80.2872 55.7268C80.8018 55.7268 81.2089 55.8907 81.5063 56.2153C81.8058 56.5425 81.9556 56.9859 81.9556 57.5445" fill="#2E272D"/>
<path d="M82.5461 59.4241V58.629C82.6959 58.3018 82.9089 57.9797 83.1853 57.6673C83.4616 57.3551 83.8075 57.0279 84.2272 56.6882C84.6301 56.3636 84.9106 56.0934 85.073 55.8824C85.2333 55.6689 85.3156 55.463 85.3156 55.2578C85.3156 54.7585 85.0645 54.5072 84.5604 54.5072C84.3158 54.5072 84.1302 54.5747 83.9994 54.7057C83.8707 54.8384 83.7885 55.0346 83.7505 55.2983L82.5968 55.2331C82.66 54.7009 82.8604 54.2937 83.1936 54.0136C83.5269 53.7349 83.9783 53.5934 84.552 53.5934C85.1722 53.5934 85.6489 53.7349 85.98 54.0176C86.3112 54.3003 86.4778 54.6966 86.4778 55.2093C86.4778 55.477 86.425 55.7217 86.3175 55.9394C86.212 56.1569 86.077 56.357 85.9104 56.5408C85.7438 56.7237 85.5602 56.8952 85.3577 57.0551C85.1552 57.2156 84.9591 57.3715 84.7693 57.5255C84.5795 57.678 84.4044 57.8312 84.2483 57.9854L83.9003 58.483H86.5663V59.4241H82.5461" fill="#2E272D"/>
<path d="M93.2295 57.6634C93.2295 57.2307 93.1873 56.9225 93.105 56.7388C93.0207 56.5534 92.8794 56.4601 92.679 56.4601C92.4618 56.4601 92.3099 56.5559 92.2276 56.7411C92.1454 56.9291 92.1031 57.2364 92.1031 57.6634C92.1031 58.1001 92.1475 58.4057 92.2339 58.5829C92.3204 58.7618 92.466 58.8506 92.6706 58.8506C92.8688 58.8506 93.0123 58.7576 93.0988 58.5722C93.1852 58.3884 93.2295 58.0853 93.2295 57.6634ZM94.1048 57.6634C94.1048 58.2557 93.9825 58.7091 93.7378 59.0213C93.4931 59.3337 93.1346 59.4902 92.6621 59.4902C92.1833 59.4902 91.8226 59.336 91.5822 59.0255C91.3396 58.7156 91.2194 58.2623 91.2194 57.6634C91.2194 57.0552 91.3354 56.5979 91.5696 56.2922C91.8037 55.9855 92.1728 55.8323 92.679 55.8323C93.1684 55.8323 93.5269 55.988 93.7589 56.2962C93.9888 56.6044 94.1048 57.0592 94.1048 57.6634V57.6634ZM89.1523 59.4242H88.3128L92.0631 53.68H92.9152L89.1523 59.4242ZM89.1144 55.4417C89.1144 55.0157 89.0743 54.7101 88.9899 54.5238C88.9076 54.3384 88.7664 54.2477 88.5639 54.2477C88.3466 54.2477 88.1968 54.3384 88.1125 54.5221C88.0281 54.7059 87.9859 55.0115 87.9859 55.4417C87.9859 55.8718 88.0302 56.1777 88.1188 56.3614C88.2074 56.5451 88.3529 56.6356 88.5575 56.6356C88.7579 56.6356 88.9014 56.5426 88.9857 56.3597C89.0722 56.1734 89.1144 55.8678 89.1144 55.4417V55.4417ZM88.5639 53.6148C89.0511 53.6148 89.4118 53.769 89.648 54.0747C89.8821 54.3829 90.0002 54.8385 90.0002 55.4417C90.0002 56.0342 89.8758 56.4882 89.6311 56.8023C89.3843 57.1145 89.0216 57.2727 88.5449 57.2727C88.0703 57.2727 87.7138 57.117 87.4712 56.8046C87.2308 56.4941 87.1085 56.0382 87.1085 55.4417C87.1085 54.8238 87.2266 54.3656 87.4607 54.0639C87.6927 53.7648 88.0619 53.6148 88.5639 53.6148Z" fill="#2E272D"/>
</svg>
